<svg width="370" height="267" viewBox="0 0 370 267" fill="none" xmlns="http://www.w3.org/2000/svg">
<path fill-rule="evenodd" clip-rule="evenodd" d="M274.69 6.57503C295.206 11.2604 306.759 17.8781 312.348 24.4945C315.803 28.585 317.041 32.7689 316.486 36.4428V60.4216C330.729 55.4281 342.033 57.0037 350.417 61.2646C358.987 65.6202 364.337 72.6944 366.666 77.9786L366.692 78.0386L366.714 78.1002C370.77 89.227 370.32 98.8542 366.725 107.044C363.153 115.179 356.57 121.688 348.717 126.822C333.445 136.805 312.874 141.91 298.187 143.645L287.26 167.683C320.592 172.533 342.016 178.682 354.535 185.592C360.966 189.141 365.236 192.993 367.475 197.157C369.76 201.408 369.82 205.785 368.219 210.029C366.648 214.193 363.501 218.188 359.431 221.943C355.345 225.714 350.218 229.343 344.523 232.75C333.134 239.564 319.295 245.599 306.508 250.168L306.435 250.195L306.36 250.215C171.853 286.753 64.1519 255.118 26.8689 234.536L26.8214 234.51L26.7754 234.481C18.6849 229.424 12.692 224.649 8.53468 220.125C4.38102 215.605 1.97277 211.241 1.23987 207.018C-0.267958 198.329 5.40499 191.446 13.7754 186.214C22.2138 180.94 34.0431 176.89 46.4915 173.888C57.8589 171.146 69.8715 169.249 80.5419 168.108C51.9872 118.165 50.7209 60.2441 53.785 36.5358C52.4436 32.7916 53.7165 28.4393 58.0331 24.3355C63.6462 18.9994 74.7979 13.5993 94.2532 9.22692C113.779 4.83866 141.918 1.43293 181.778 0.285878C224.275 -0.937052 254.116 1.87613 274.69 6.57503ZM57.3802 40.332C54.8815 65.6856 57.3494 121.325 85.5102 168.689L99.3009 187.897C100.002 188.462 100.864 189.18 101.761 189.96L103.918 190.492L108.24 195.355L111.502 198.151C171.943 233.64 230.087 216.424 253.635 202.414L251.913 200.691L255.357 199.843C255.534 199.8 255.714 199.756 255.896 199.712L282.63 168.204L295.056 140.866L295.106 140.78C296.562 138.277 297.972 135.161 299.324 131.579C299.873 130.124 300.411 128.597 300.937 127.009C301.293 125.933 301.644 124.828 301.989 123.7C306.074 110.339 309.298 93.7558 311.464 79.9746C311.836 77.6021 312.178 75.3149 312.486 73.1439V41.1717C298.277 54.3089 274.838 61.9151 251.134 66.1661C225.295 70.8001 198.607 71.5354 181.848 70.7876C167.361 71.6204 143.749 70.9812 119.709 66.3743C97.0471 62.0314 73.7289 54.1117 57.3802 40.332ZM312.583 35.4099C312.741 33.6309 312.28 31.4367 310.718 28.9971C309.31 30.5265 307.56 32.1562 305.465 33.8429C299.106 38.9622 289.426 44.7207 276.054 49.8677C254.681 58.0946 223.814 64.7851 181.835 64.7851H181.826L181.816 64.785C160.173 64.5735 123.182 61.3507 94.6914 51.6596C81.3938 47.1364 69.7001 41.1239 62.34 33.1407C61.1453 31.8449 60.0611 30.4932 59.1017 29.0836C57.1681 31.5892 57.0315 33.6519 57.5331 35.1331C73.1252 49.5566 96.8401 57.919 120.462 62.4458C144.198 66.9946 167.531 67.6133 181.719 66.7884L181.822 66.7824L181.926 66.7871C198.441 67.5317 224.882 66.8104 250.428 62.229C275.826 57.674 299.82 49.3897 312.583 35.4099ZM61.9797 26.1837C62.6093 27.1671 63.3141 28.1284 64.0908 29.0677C67.6778 26.4385 72.9204 23.1045 78.5968 20.4708C85.0485 17.4774 92.4497 15.2024 98.687 16.3162L97.9839 20.2539C93.0212 19.3677 86.5807 21.1761 80.2803 24.0993C75.0719 26.5159 70.2247 29.5678 66.8363 32.0167C73.4709 38.4015 83.4856 43.5559 95.2895 47.6361C118.973 38.4923 186.417 26.0016 275.181 45.9164C286.949 41.3347 295.619 36.3222 301.519 31.8502C300.701 30.9438 299.42 29.95 297.641 28.9132C295.067 27.4137 291.76 25.9995 288.149 24.7202C280.937 22.1644 272.774 20.2381 267.47 19.2513L268.201 15.3188C273.647 16.332 282.023 18.3057 289.485 20.9499C293.213 22.2706 296.778 23.7814 299.654 25.4569C301.575 26.5762 303.349 27.8589 304.627 29.3284C306.048 28.0879 307.225 26.9192 308.173 25.8478C302.963 20.5326 292.536 14.7538 273.8 10.4746C253.668 5.87692 224.192 3.06698 181.893 4.28422C142.18 5.42704 114.318 8.8173 95.1303 13.1296C77.3333 17.1293 67.2089 21.8779 61.9797 26.1837ZM268.126 48.478C188.591 31.7919 127.408 41.3135 101.578 49.6611C128.618 57.7753 161.805 60.5885 181.845 60.7851C219.274 60.7841 247.628 55.4102 268.126 48.478ZM316.262 74.9921C316.13 75.8995 315.993 76.825 315.851 77.7667C327.445 75.6911 335.459 77.168 340.799 80.2679C346.57 83.6183 348.971 88.7326 349.327 92.602L349.335 92.6933V92.785C349.335 98.5981 347.743 103.525 345.087 107.647C345.55 108.239 345.983 108.881 346.331 109.542C346.897 110.614 347.463 112.16 346.994 113.704C346.452 115.487 344.853 116.382 343.032 116.698C342.832 116.733 342.624 116.762 342.407 116.785C341.742 117.208 340.95 117.409 340.233 117.495C338.984 117.645 337.348 117.543 335.269 117.188C332.825 118.769 330.197 120.105 327.501 121.224C327.819 121.663 327.917 122.12 327.955 122.35C328.008 122.672 328.01 122.984 327.999 123.235C327.976 123.744 327.885 124.279 327.788 124.719L327.489 126.065L324.538 126.495C323.832 127.142 322.971 127.694 322.103 128.166C320.72 128.919 319.047 129.615 317.272 130.245C313.719 131.507 309.557 132.579 306.037 133.354C304.826 133.621 303.685 133.854 302.661 134.048C301.93 135.922 301.171 137.691 300.386 139.327C314.461 137.356 332.849 132.416 346.529 123.474C353.98 118.603 359.903 112.63 363.062 105.436C366.19 98.3096 366.699 89.7778 362.979 79.5326C360.959 74.9879 356.218 68.6999 348.604 64.8305C341.244 61.0898 331.037 59.5254 317.681 64.2415C317.447 66.236 317.168 68.4477 316.845 70.8296C319.191 70.4292 321.951 70.0081 324.467 69.7228C326.255 69.5199 327.974 69.3793 329.351 69.3726C330.034 69.3692 330.698 69.3979 331.273 69.4882C331.56 69.5335 331.876 69.6017 332.183 69.7129C332.47 69.817 332.886 70.0068 333.25 70.3708L330.421 73.1993C330.536 73.3136 330.64 73.3817 330.703 73.4175C330.767 73.4539 330.81 73.47 330.819 73.4734L330.821 73.4742C330.821 73.4744 330.771 73.4585 330.651 73.4397C330.381 73.3972 329.958 73.3696 329.371 73.3725C328.208 73.3783 326.655 73.5002 324.917 73.6973C322.029 74.0248 318.777 74.5425 316.262 74.9921ZM326.545 124.044C326.545 124.044 326.539 124.05 326.527 124.058C326.539 124.048 326.545 124.043 326.545 124.044ZM306.631 122.118C314.624 121.444 325.52 118.96 333.715 113.42C334.076 113.176 334.432 112.926 334.781 112.671C336.086 111.716 337.305 110.682 338.418 109.564C339.34 108.637 340.189 107.651 340.952 106.606C343.644 102.918 345.316 98.4144 345.335 92.8803C345.064 90.2506 343.346 86.3722 338.79 83.7272C334.343 81.1451 326.964 79.6163 315.199 81.9609C313.173 94.6113 310.275 109.487 306.631 122.118ZM285.147 171.42L281.601 175.6C288.261 175.756 296.784 176.199 304.506 177.105C309.245 177.661 313.746 178.398 317.349 179.371C319.149 179.856 320.781 180.416 322.129 181.07C323.439 181.705 324.677 182.522 325.463 183.623L322.208 185.948C321.994 185.648 321.461 185.191 320.384 184.669C319.344 184.164 317.973 183.682 316.306 183.232C312.977 182.334 308.697 181.624 304.04 181.078C295.15 180.035 285.122 179.614 278.255 179.543L273.528 185.114C279 187.716 288.674 191.953 296.775 194.33C299.557 194.779 303.539 195.894 306.247 197.956C307.646 199.022 308.912 200.501 309.263 202.462C309.623 204.468 308.945 206.511 307.424 208.5L307.272 208.699L307.075 208.855C300.441 214.092 280.344 225.115 251.631 228.764C226.378 233.107 164.903 239.216 120.926 228.744C111.145 226.987 100.048 224.596 90.023 221.799C80.0353 219.012 70.9156 215.771 65.2561 212.26C62.4842 210.54 60.1593 208.529 59.252 206.15C58.7696 204.886 58.698 203.539 59.1493 202.198C59.5874 200.895 60.4672 199.747 61.6321 198.729C63.9253 196.725 67.6911 194.913 72.9785 193.222C78.2858 191.524 85.3198 189.89 94.3473 188.34L94.6275 188.246L88.5695 179.808C80.2608 180.015 68.1613 180.793 57.5928 182.485C52.0727 183.368 47.054 184.488 43.2337 185.872C41.3226 186.564 39.7809 187.297 38.6453 188.056C37.4911 188.827 36.9103 189.521 36.6737 190.073L32.9971 188.497C33.6606 186.949 34.9421 185.719 36.4235 184.73C37.9234 183.728 39.7902 182.865 41.8717 182.111C46.0364 180.603 51.3385 179.435 56.9607 178.535C66.6486 176.985 77.5364 176.191 85.7584 175.893L82.8829 171.888C71.888 172.986 59.2827 174.918 47.4293 177.776C35.1277 180.743 23.7903 184.672 15.8954 189.606C7.9325 194.583 4.10546 200.137 5.18096 206.334C5.73973 209.553 7.64398 213.244 11.4799 217.418C15.3047 221.58 20.9639 226.128 28.8493 231.06C65.2711 251.143 171.836 282.59 305.236 246.375C317.845 241.865 331.396 235.943 342.469 229.317C348.017 225.998 352.898 222.528 356.718 219.004C360.555 215.463 363.212 211.967 364.477 208.617C365.711 205.346 365.637 202.185 363.952 199.052C362.22 195.831 358.683 192.45 352.602 189.094C340.552 182.444 319.261 176.289 285.147 171.42ZM97.426 191.53L95.3233 192.231L95.1731 192.256C86.173 193.798 79.29 195.402 74.1971 197.031C69.0548 198.676 65.9268 200.288 64.2638 201.741C63.4506 202.452 63.0866 203.039 62.9405 203.473C62.8076 203.868 62.8115 204.259 62.9892 204.725C63.4022 205.807 64.7367 207.23 67.3648 208.861C72.5053 212.05 81.1481 215.17 91.0979 217.946C100.991 220.706 111.983 223.075 121.689 224.817L121.744 224.827L121.799 224.84C164.994 235.143 225.899 229.135 250.996 224.814L251.04 224.807L251.084 224.801C278.839 221.283 298.139 210.711 304.392 205.874C305.335 204.573 305.422 203.705 305.326 203.167C305.217 202.559 304.783 201.869 303.824 201.139C302.058 199.794 299.229 198.865 296.826 198.401L289.904 203.435L288.969 201.003C288.967 200.997 288.951 200.956 288.87 200.881C288.782 200.799 288.624 200.685 288.356 200.559C287.803 200.302 286.962 200.079 285.802 199.936C283.49 199.651 280.364 199.735 276.841 200.076C271.213 200.621 264.856 201.791 259.793 202.915L259.942 203.063L257.976 204.428C234.548 220.698 209.821 226.496 186.921 226.485C153.914 227.156 124.663 216.676 109.352 208.026L108.335 207.452V204.001C107.96 203.761 107.592 203.523 107.232 203.285H106.099L105.547 202.18C105.361 201.809 105.058 201.15 104.746 200.36C99.5631 201.569 89.8453 203.844 88.3205 204.225C87.8281 204.348 87.0117 204.493 86.2163 204.148C85.7505 203.946 85.3373 203.593 85.0753 203.099C84.8306 202.637 84.7874 202.186 84.7993 201.862C84.8212 201.263 85.0443 200.751 85.1888 200.463C85.3553 200.13 85.5553 199.825 85.7354 199.585L86.1472 199.036L101.273 194.911C100.705 194.373 100.097 193.822 99.489 193.287C98.765 192.65 98.0526 192.047 97.426 191.53ZM291.15 197.584L291.952 197C291.601 196.882 291.249 196.761 290.895 196.639L290.645 197.249C290.817 197.351 290.986 197.463 291.15 197.584ZM272.318 194.16L272.777 194.074L272.46 193.959L272.3 194.039L272.318 194.16ZM163.892 11.1039C157.879 11.576 151.561 12.2725 147.583 12.7696L147.087 8.80049C151.11 8.29762 157.492 7.59411 163.579 7.11618C169.571 6.64569 175.557 6.36778 178.618 6.80515L178.053 10.7649C175.514 10.4023 169.999 10.6244 163.892 11.1039ZM208.701 10.9708C202.354 10.7022 194.846 10.7018 189.869 10.7848L189.802 6.78532C194.825 6.70161 202.417 6.70125 208.87 6.97433C212.088 7.11053 215.074 7.31667 217.33 7.62362C218.448 7.77571 219.463 7.96239 220.262 8.2033C220.656 8.32236 221.079 8.47822 221.458 8.69465C221.782 8.88003 222.389 9.28439 222.692 10.0423L218.978 11.5278C219.087 11.8001 219.24 11.9699 219.326 12.052C219.372 12.0952 219.409 12.1242 219.433 12.141C219.456 12.1579 219.471 12.1664 219.473 12.1677C219.475 12.169 219.449 12.1538 219.381 12.1268C219.315 12.1005 219.225 12.0686 219.106 12.0328C218.608 11.8824 217.836 11.7293 216.791 11.5871C214.721 11.3055 211.883 11.1054 208.701 10.9708ZM264.117 180.763C291.493 134.738 298 84.1815 297.835 64.802L301.835 64.7681C302.004 84.7219 295.378 136.032 267.554 182.807L264.117 180.763ZM89.4156 159.005C77.2011 135.008 68.3296 106.596 63.8887 87.7436L67.7822 86.8265C72.1746 105.474 80.9531 133.562 92.9803 157.19C98.996 169.009 105.777 179.617 113.16 187.366C120.559 195.133 128.367 199.829 136.449 200.288L136.222 204.282C126.704 203.741 118.004 198.25 110.264 190.126C102.508 181.984 95.5207 170.999 89.4156 159.005ZM260.792 189.656L252.792 198.156L249.879 195.414L257.879 186.914L260.792 189.656ZM145.419 241.783C106.458 243.407 70.4396 225.928 57.2114 216.939L59.4595 213.631C72.2313 222.309 107.413 239.363 145.252 237.787L145.419 241.783ZM266.214 233.999C253.818 236.386 240.267 238.268 231.565 239.272L231.106 235.298C239.738 234.302 253.186 232.434 265.457 230.071C271.595 228.889 277.405 227.59 282.157 226.222C287.002 224.828 290.462 223.44 292.135 222.185L294.535 225.385C292.208 227.13 288.085 228.679 283.263 230.066C278.349 231.48 272.409 232.806 266.214 233.999Z" fill="#AF9283"/>
</svg>
