<svg width="56" height="35" viewBox="0 0 56 35" fill="none" xmlns="http://www.w3.org/2000/svg">
<path d="M6.09395 15.5726C6.57544 15.4326 7.09242 15.4843 7.53668 15.7168L9.95543 16.9826L15.5554 19.1536L21.7776 22.4101L23.9924 23.5692C24.584 23.8788 25.2315 24.0668 25.8969 24.1221L37.9554 25.1238L53.8412 25.6016C54.6109 25.6248 54.9526 26.58 54.3723 27.0861C54.2181 27.2206 54.0204 27.2948 53.8157 27.2948H52.8887H53.3156C53.4415 27.2948 53.5632 27.3404 53.6581 27.4231C54.0267 27.7447 53.789 28.3512 53.3 28.3365L36.7109 27.8375L24.0501 26.3316C23.3719 26.2509 22.7175 26.0322 22.1271 25.6889L16.17 22.2247C15.7623 21.9876 15.3232 21.8095 14.8656 21.6954L7.07624 19.7542C6.92204 19.7157 6.77224 19.6614 6.62924 19.5921L5.78925 19.1851C4.18874 18.4095 4.38613 16.0691 6.09395 15.5726Z" fill="#2D635E"/>
<path d="M10.0201 29.1622C9.99377 29.1384 10.0063 29.0948 10.0412 29.0885L13.2561 28.5133C13.7492 28.425 14.2263 28.2632 14.6713 28.0331L16.8 26.9328L20.1749 24.847C21.0305 24.3182 22.0164 24.0382 23.0222 24.0382C23.5988 24.0382 24.1201 23.6949 24.3479 23.1651L24.5909 22.5999C24.5931 22.5948 24.5988 22.5923 24.6041 22.5941L29.1828 24.1917C30.0128 24.4812 30.3495 25.4738 29.867 26.2086C29.8668 26.209 29.8665 26.2094 29.8664 26.2098C29.2688 27.6256 28.2815 28.8468 27.0212 29.7262L26.7542 29.9126C26.1464 30.3367 25.49 30.6865 24.7989 30.9544L22.1059 31.9984C18.0577 33.3401 13.6007 32.4011 10.4379 29.5401L10.0201 29.1622Z" fill="#2D635E"/>
<path d="M26.7041 7.78513C26.6024 7.59824 26.3205 7.66275 26.2844 7.88119L25.6356 11.8054L25.2188 14.6466L24.5649 17.3473C24.103 19.2552 23.9018 21.205 23.9672 23.1389C23.9679 23.159 23.9744 23.1782 23.9857 23.1939L24.5065 23.9153L25.1263 24.9838C25.13 24.9902 25.1359 24.9949 25.143 24.9971L26.3379 25.3591C26.6123 25.4422 26.8594 25.5932 27.0584 25.7992L27.5077 26.2644C28.4486 27.2386 30.1337 26.4871 30.18 25.0728C30.1829 24.9866 30.1925 24.9004 30.2089 24.815L30.4412 23.6019C30.8355 21.5435 30.8544 19.4498 30.4969 17.4294L30.3655 16.6866C29.9881 14.5532 29.2783 12.5153 28.263 10.6495L26.7041 7.78513Z" fill="#2D635E"/>
<path d="M2.34666 6.15177C3.44176 4.62342 5.06912 3.56017 6.90863 3.17119L8.90882 2.74824C10.2237 2.47019 11.4866 1.98671 12.651 1.31556L14.9085 0.0143471C14.9193 0.00812333 14.9327 0.0162526 14.9322 0.0287048L14.903 0.732663C14.7298 4.91017 12.5386 8.74338 9.0268 11.0125C7.60625 11.8385 7.02603 13.5951 7.67506 15.1048L8.40019 16.7915C8.40302 16.7981 8.40337 16.8055 8.40116 16.8123L7.66049 19.0982C7.54495 19.4548 7.21281 19.6963 6.83798 19.6963C6.42955 19.6963 6.02319 19.6385 5.63101 19.5244L3.73771 18.974C3.73483 18.9731 3.73205 18.9719 3.72946 18.9704C1.46102 17.6513 0.180644 15.1213 0.461063 12.5123L0.621446 11.02C0.621987 11.015 0.623291 11.0101 0.625314 11.0055L0.93481 10.296C0.936868 10.2912 0.93793 10.2861 0.93793 10.281C0.93793 8.87429 1.37853 7.50292 2.19785 6.35945L2.34666 6.15177Z" fill="#2D635E"/>
<path d="M4.12321 7.04859C3.54854 7.52145 3.26479 8.59069 3.19475 9.0662C3.09036 9.53254 2.9561 9.25682 2.79517 9.02178C2.9996 9.06251 3.30682 8.97688 2.90023 8.30852C2.49365 7.64015 2.8709 7.07901 3.11035 6.88198C3.27976 7.16047 3.66062 7.43213 3.82871 6.2909C4.03883 4.86437 5.77363 5.94419 5.16034 5.82201C4.66971 5.72426 4.47699 6.17533 4.44195 6.41308C4.64638 6.45381 4.69789 6.57572 4.12321 7.04859Z" fill="white"/>
<path fill-rule="evenodd" clip-rule="evenodd" d="M2.80267 9.12081C2.78653 9.0964 2.7704 9.07202 2.75484 9.0493L2.68634 8.94924L2.80237 8.97236C2.84855 8.98156 2.89851 8.98312 2.941 8.97254C2.98282 8.96213 3.01461 8.94092 3.03261 8.90604C3.051 8.8704 3.05937 8.81205 3.03597 8.71785C3.01258 8.62365 2.95845 8.49818 2.85833 8.33359C2.64669 7.98568 2.63827 7.66299 2.71541 7.40195C2.79195 7.14293 2.95219 6.94575 3.07799 6.84223L3.12138 6.80653L3.15208 6.85699C3.19227 6.92305 3.24362 6.98622 3.2986 7.02762C3.35342 7.0689 3.40575 7.08444 3.45425 7.07034C3.50438 7.05578 3.56502 7.00555 3.62444 6.88029C3.68351 6.75579 3.7379 6.56418 3.77959 6.28118C3.83382 5.91297 3.98824 5.69835 4.18628 5.58851C4.38221 5.47984 4.61243 5.47844 4.8105 5.5179C5.00801 5.55725 5.18183 5.63888 5.26931 5.70669C5.29106 5.72354 5.31089 5.74213 5.32384 5.7617C5.3354 5.77919 5.35247 5.81615 5.3282 5.84982C5.31795 5.86404 5.3038 5.87156 5.29176 5.87567C5.27956 5.87983 5.26624 5.88163 5.253 5.88216C5.22654 5.88324 5.19305 5.8795 5.15297 5.87152C4.92677 5.82645 4.77227 5.90694 4.66795 6.02626C4.57558 6.13191 4.52259 6.26854 4.49942 6.37619C4.53478 6.38718 4.56817 6.40319 4.59297 6.42795C4.61256 6.44749 4.62639 6.47208 4.63125 6.50133C4.63596 6.52969 4.63166 6.55881 4.62142 6.58782C4.60137 6.64465 4.55489 6.71126 4.48095 6.79106C4.40617 6.87177 4.29988 6.96954 4.1554 7.08842C3.8772 7.31733 3.66626 7.69395 3.51582 8.07704C3.36577 8.45914 3.27822 8.84166 3.2437 9.07602L3.24316 9.07967L3.24303 9.07964C3.21679 9.19686 3.18695 9.27712 3.1494 9.32259C3.12972 9.34642 3.10507 9.36415 3.07462 9.36894C3.0441 9.37374 3.01589 9.36425 2.99243 9.35018C2.94843 9.32379 2.90758 9.27295 2.87109 9.22184C2.84938 9.19142 2.82601 9.15609 2.80267 9.12081ZM3.1459 9.05463C3.12007 9.16942 3.09414 9.22909 3.07224 9.2556C3.06214 9.26783 3.0561 9.26908 3.05496 9.26926C3.0539 9.26943 3.04962 9.26987 3.03972 9.26393C3.01699 9.2503 2.98758 9.21729 2.95037 9.16517C2.93123 9.13837 2.91245 9.11014 2.89289 9.08056C2.91843 9.07983 2.94408 9.07673 2.96884 9.07056C3.02942 9.05548 3.08735 9.02115 3.12088 8.95617C3.15402 8.89195 3.159 8.80612 3.13204 8.69756C3.10507 8.58899 3.04513 8.45312 2.94196 8.28353C2.74702 7.96307 2.74077 7.67101 2.81048 7.43513C2.87262 7.22484 2.99556 7.05831 3.10175 6.9579C3.14116 7.01383 3.1888 7.06754 3.24209 7.10766C3.31157 7.15998 3.39673 7.19325 3.48562 7.16741C3.5729 7.14205 3.64958 7.06362 3.71413 6.92755C3.77905 6.79072 3.8353 6.58832 3.87766 6.30072C3.92848 5.95565 4.06971 5.7703 4.23688 5.67758C4.40616 5.58369 4.6107 5.57993 4.79593 5.61683C4.97366 5.65224 5.12598 5.72356 5.20178 5.77846C5.19174 5.77706 5.18037 5.77514 5.16754 5.77259C4.90311 5.7199 4.71594 5.81608 4.59248 5.95728C4.47106 6.09617 4.41132 6.27785 4.39283 6.40335L4.38554 6.45282L4.43458 6.46259C4.48429 6.47249 4.51249 6.48551 4.52527 6.49827C4.53028 6.50327 4.53257 6.50787 4.53351 6.51351C4.53459 6.52004 4.53437 6.53151 4.52791 6.54983C4.51455 6.58768 4.47893 6.64276 4.40729 6.72008C4.33649 6.7965 4.23371 6.89129 4.09086 7.00884C3.79437 7.2528 3.57611 7.64723 3.42349 8.03586C3.27088 8.42448 3.1816 8.81334 3.1459 9.05463Z" fill="white"/>
<path d="M13.8781 30.5237C14.3347 30.8376 15.2649 31.09 15.6729 31.177C16.0767 31.2783 15.8577 31.3066 15.6757 31.3516C15.6895 31.2644 15.5863 31.1161 15.0637 31.2212C14.5411 31.3263 14.0299 31.091 13.8397 30.9602C14.0574 30.9165 14.2481 30.7767 13.2689 30.5679C12.0448 30.307 12.7807 29.652 12.7394 29.9138C12.7064 30.1233 13.1062 30.2626 13.3102 30.3061C13.3239 30.2189 13.4215 30.2099 13.8781 30.5237Z" fill="white"/>
<path fill-rule="evenodd" clip-rule="evenodd" d="M15.7449 31.3875C15.7259 31.3919 15.7071 31.3963 15.6896 31.4006L15.6145 31.4192L15.6268 31.3411C15.6284 31.3312 15.6268 31.3188 15.6185 31.3059C15.61 31.2929 15.5922 31.2756 15.5552 31.2612C15.4793 31.2317 15.3342 31.2186 15.0756 31.2706C14.5355 31.3792 14.0105 31.137 13.8134 31.0016L13.7142 30.9334L13.8277 30.9106C13.8804 30.9 13.9258 30.8845 13.9512 30.8673C13.959 30.862 13.9628 30.8579 13.9646 30.8556C13.9643 30.8552 13.964 30.8548 13.9636 30.8542C13.9581 30.8465 13.9443 30.8332 13.9142 30.8157C13.8849 30.7986 13.8435 30.7794 13.7869 30.7584C13.6738 30.7165 13.5048 30.6692 13.2611 30.6172C12.9512 30.5512 12.7574 30.4588 12.6437 30.3557C12.5273 30.2503 12.4959 30.1345 12.5117 30.0343C12.5268 29.9386 12.5844 29.8615 12.6393 29.8259C12.6533 29.8167 12.669 29.8091 12.6853 29.8053C12.7013 29.8016 12.7223 29.8005 12.743 29.8105C12.7657 29.8214 12.7797 29.8413 12.786 29.8627C12.7919 29.8825 12.7915 29.9038 12.7883 29.9242C12.7829 29.9579 12.7939 29.9909 12.823 30.0257C12.8529 30.0616 12.8997 30.0962 12.9576 30.1279C13.0584 30.1832 13.1825 30.2241 13.2784 30.2476C13.2873 30.2335 13.3002 30.221 13.3186 30.2128C13.353 30.1973 13.3952 30.2021 13.4404 30.2162C13.5318 30.2449 13.6763 30.3255 13.9043 30.4822C14.1262 30.6347 14.4671 30.7745 14.8069 30.8874C15.1456 31 15.4783 31.0843 15.6807 31.1275L15.6824 31.1279L15.6824 31.1279C15.7833 31.1532 15.8508 31.1752 15.8902 31.196C15.9079 31.2053 15.9312 31.22 15.9431 31.2438C15.9503 31.2582 15.9527 31.2748 15.9482 31.2912C15.9442 31.3061 15.9356 31.3165 15.9285 31.3232C15.9149 31.336 15.8965 31.3445 15.8808 31.3506C15.8638 31.3571 15.844 31.363 15.8235 31.3684C15.8 31.3747 15.7724 31.3811 15.7449 31.3875ZM15.2967 31.137C15.1384 31.0949 14.9603 31.043 14.7805 30.9832C14.4391 30.8698 14.0866 30.7264 13.8518 30.5651C13.6233 30.408 13.4906 30.3361 13.4157 30.3126C13.3776 30.3007 13.3644 30.3045 13.3623 30.3054C13.3622 30.3055 13.3624 30.3053 13.3621 30.3057C13.3615 30.3067 13.3601 30.3097 13.359 30.3165L13.3512 30.3659L13.3023 30.3554C13.1975 30.3331 13.0414 30.286 12.9141 30.2163C12.8507 30.1816 12.791 30.1393 12.7489 30.0888C12.7086 30.0405 12.6826 29.9821 12.6888 29.9164C12.6568 29.9405 12.6195 29.9918 12.6095 30.0552C12.5994 30.1187 12.6161 30.1992 12.7074 30.2818C12.8012 30.3668 12.9745 30.4541 13.2766 30.5185C13.5225 30.5709 13.6969 30.6194 13.8166 30.6637C13.8764 30.6859 13.9238 30.7075 13.9601 30.7287C13.9957 30.7494 14.0244 30.7719 14.0426 30.7975C14.0624 30.8252 14.0705 30.8578 14.06 30.89C14.0506 30.9184 14.0292 30.9384 14.0088 30.9522C13.995 30.9616 13.979 30.9699 13.9617 30.9772C14.1902 31.1028 14.6181 31.2587 15.0518 31.1715C15.145 31.1528 15.2262 31.1417 15.2967 31.137ZM15.6831 31.2309C15.7372 31.2449 15.7773 31.257 15.8061 31.2674C15.8022 31.2684 15.7982 31.2695 15.7941 31.2706C15.7711 31.2767 15.7468 31.2824 15.7211 31.2884C15.72 31.2886 15.7189 31.2889 15.7179 31.2891C15.7137 31.2771 15.7079 31.265 15.7003 31.2532C15.6952 31.2455 15.6895 31.238 15.6831 31.2309Z" fill="white"/>
</svg>
