<svg width="348" height="377" viewBox="0 0 348 377" fill="none" xmlns="http://www.w3.org/2000/svg">
<path fill-rule="evenodd" clip-rule="evenodd" d="M14.4876 4.22598C12.0156 4.69952 10.0033 6.38415 8.37323 9.11549C6.72479 11.8775 5.55739 15.5733 4.78064 19.7086C3.22903 27.9693 3.30782 37.5817 3.86653 43.9095L2.37234 44.0415H3.87234C3.87234 45.9357 4.56131 47.0703 5.64481 47.8501C6.82711 48.701 8.61096 49.2181 10.9084 49.4695C13.1794 49.718 15.7673 49.6899 18.4294 49.5924C19.2181 49.5635 20.0178 49.5282 20.8154 49.493C22.6637 49.4114 24.5013 49.3304 26.1676 49.3304H52.9543V28.0378C52.8103 27.9582 52.6599 27.8714 52.5065 27.7802C51.9042 27.4219 51.1863 26.9533 50.4974 26.4688C49.8123 25.9871 49.1245 25.4676 48.5945 25.0065C48.3337 24.7797 48.0758 24.5366 47.8705 24.2981C47.7691 24.1802 47.6503 24.0288 47.5494 23.8535C47.4674 23.7114 47.2932 23.3803 47.2932 22.9427V9.61738C47.1195 8.2505 46.0992 7.03693 43.9384 6.01244C41.7496 4.97468 38.6974 4.29457 35.1976 3.90801C28.2444 3.14003 19.9902 3.57686 14.4876 4.22598ZM55.9543 28.6431V49.3304H61.4459V28.7328C59.0983 28.7094 57.2247 28.6804 55.9543 28.6431ZM64.4459 31.9289V49.3304L227.117 49.3304C228.529 49.3304 229.354 48.6629 229.901 47.735C230.493 46.7301 230.712 45.4573 230.712 44.6072V28.4918C230.466 28.5426 230.211 28.5692 229.949 28.5692H175.605C146.957 28.7089 96.5279 28.8899 70.6319 28.7906C70.5315 28.9657 70.3958 29.1308 70.2215 29.2785C70.0205 29.4488 69.7859 29.5711 69.5352 29.6389C69.539 29.6963 69.5409 29.7541 69.5409 29.812V29.9273C69.5409 32.7131 66.1374 33.8154 64.4459 31.9289ZM66.3522 25.7702C66.3525 25.7702 66.3519 25.7702 66.3522 25.7702C67.4247 25.7765 68.5573 25.7821 69.7455 25.787C94.9234 25.8924 144.937 25.7165 174.153 25.5762C174.919 14.5087 184.14 5.7683 195.402 5.7683H206.519C211.256 5.7683 215.937 7.40205 219.269 10.2753C222.632 13.1766 224.642 17.3835 223.784 22.3338C223.68 22.9339 223.554 23.5311 223.403 24.1207C223.276 24.6187 223.168 25.0999 223.09 25.5692H229.949C230.371 25.5692 230.712 25.2277 230.712 24.8063H233.712V44.6072C233.712 45.8315 233.422 47.6702 232.485 49.2584C231.504 50.9235 229.782 52.3304 227.117 52.3304H222.956V89.498H293.918C298.186 89.498 301.645 92.9576 301.645 97.2252V109.865H311.415C314.894 109.628 317.271 110.613 318.719 112.252C320.103 113.818 320.434 115.751 320.326 117.099C319.998 135.922 315.388 146.163 312.502 150.754C311.351 152.584 309.533 153.609 307.602 153.991L347.214 351.923C347.404 352.874 347.5 353.842 347.5 354.812C347.5 358.718 345.948 362.464 343.185 365.225L339.698 368.71C334.706 373.698 327.938 376.5 320.882 376.5H89.4158C75.694 376.5 62.5338 371.051 52.8279 361.352C51.4125 359.937 50.7961 357.91 51.1846 355.947L91.119 154.187C91.0624 154.19 91.0044 154.194 90.9447 154.197C90.8786 154.2 90.8105 154.204 90.74 154.208C90.3462 154.229 89.8866 154.249 89.4261 154.226C88.5125 154.18 87.3333 153.951 86.442 152.951C85.2582 151.623 84.3536 149.314 83.619 146.727C82.8625 144.064 82.2163 140.835 81.673 137.44C80.5868 130.652 79.8913 123.065 79.5651 117.695C79.3214 114.734 79.9675 112.649 81.2212 111.334C82.4268 110.069 83.9747 109.752 85.1067 109.865H96.5446V96.6591C96.5446 92.7041 99.7507 89.498 103.706 89.498H176.366V52.3304L26.1676 52.3304C24.5698 52.3304 22.8416 52.4067 21.0275 52.4868C20.214 52.5227 19.3833 52.5594 18.5392 52.5904C15.8585 52.6886 13.085 52.7256 10.5821 52.4517C8.10566 52.1808 5.70304 51.5882 3.89236 50.285C1.9984 48.9219 0.890455 46.8804 0.87256 44.1098C0.304064 37.6133 0.218867 27.7441 1.8322 19.1548C2.64055 14.8512 3.89326 10.7681 5.79715 7.57802C7.70927 4.37418 10.3667 1.93753 13.9876 1.26743L14.0356 1.25856L14.084 1.25282C19.715 0.58516 28.2449 0.121837 35.527 0.926147C39.1554 1.32692 42.5922 2.05408 45.2236 3.30169C47.8456 4.54484 49.9791 6.4704 50.285 9.37415L50.2932 9.45249V22.4963C50.3633 22.5645 50.4527 22.6468 50.5634 22.7431C50.985 23.1098 51.5807 23.5632 52.2231 24.0149C52.8616 24.4639 53.515 24.8895 54.0401 25.2018C54.3045 25.359 54.5191 25.4773 54.6737 25.5537C54.7039 25.5686 54.7292 25.5807 54.75 25.5902C55.5845 25.6541 58.4457 25.7087 62.9585 25.7465C63.3252 25.7495 63.7023 25.7525 64.0892 25.7553C64.8095 25.7607 65.5651 25.7656 66.3522 25.7702ZM54.8153 25.6185C54.8149 25.6184 54.8145 25.6182 54.8141 25.6181C54.8296 25.6231 54.831 25.6246 54.8153 25.6185ZM179.366 52.3304V89.498H182.104L182.595 80.17L185.591 80.3278L185.108 89.498H213.652L213.165 79.7581L216.161 79.6082L216.656 89.498H219.956V52.3304H216.163V68.9341H213.163V52.3304H185.075L185.592 68.8872L182.594 68.981L182.073 52.3304H179.366ZM99.5446 109.865H103.252L102.3 92.7413C100.694 93.3177 99.5446 94.8542 99.5446 96.6591V109.865ZM105.291 92.498L106.257 109.865H110.054L109.567 100.125L112.563 99.9749L113.058 109.865H118.623V92.498H105.291ZM121.623 92.498V109.865H127.817L128.82 99.3418L131.806 99.6264L130.83 109.865H267.44L266.945 98.9865L269.942 98.8502L270.443 109.865H277.699V92.498H121.623ZM280.699 92.498V109.865H286.191V100.616H289.191V109.865H292.418V92.498H280.699ZM295.418 92.7409V109.865H298.645V97.2252C298.645 95.1387 297.294 93.368 295.418 92.7409ZM94.1818 154.164L54.1275 356.529C53.9334 357.51 54.2413 358.523 54.9485 359.23C64.0918 368.367 76.4893 373.5 89.4158 373.5H320.882C327.143 373.5 333.148 371.014 337.577 366.588L341.064 363.103C343.264 360.904 344.5 357.922 344.5 354.812C344.5 354.039 344.424 353.269 344.272 352.512L304.577 154.164H94.1818ZM93.1825 151.164H96.3973L94.8528 134.7L97.8397 134.42L99.4105 151.164H298.775L300.35 133.858L303.337 134.13L301.788 151.164H304.488L308.282 121.921L311.257 122.307L307.545 150.92C308.578 150.61 309.425 150.01 309.962 149.157C312.531 145.071 317.016 135.362 317.327 116.997L317.328 116.941L317.333 116.886C317.399 116.161 317.21 115.074 316.472 114.239C315.786 113.463 314.406 112.659 311.574 112.861L311.521 112.865H84.9308L84.8382 112.853C84.4683 112.807 83.8669 112.906 83.3924 113.404C82.9314 113.888 82.351 115.002 82.5562 117.463L82.5576 117.48L82.5586 117.497C82.8803 122.802 83.5678 130.295 84.6353 136.966C85.1695 140.304 85.7937 143.404 86.5048 145.908C87.2379 148.489 87.9983 150.189 88.6814 150.955C88.787 151.073 88.9865 151.2 89.577 151.23C89.761 151.239 89.9577 151.238 90.1754 151.23L87.4935 122.82L90.4802 122.539L93.1825 151.164ZM220.058 25.5692C220.158 24.8047 220.32 24.0699 220.497 23.3776C220.626 22.8701 220.736 22.3502 220.828 21.8212C221.478 18.0734 220.009 14.8757 217.309 12.547C214.577 10.1901 210.611 8.7683 206.519 8.7683H195.402C185.8 8.7683 177.925 16.1635 177.162 25.5692H181.414C181.457 21.848 182.626 18.2049 184.771 15.1398L187.229 16.8602C185.436 19.4214 184.458 22.4639 184.414 25.5692H213.244L213.505 20.8652L213.614 19.9908C213.818 18.3615 213.354 16.7191 212.329 15.437L214.671 13.5629C216.203 15.4775 216.895 17.93 216.591 20.3629L216.495 21.1347L216.249 25.5692H220.058ZM13.6947 11.597C13.6946 11.597 13.6945 11.597 13.6945 10.097C13.6945 8.59701 13.6946 8.59701 13.6947 8.59701H35.2066V11.597H13.6947ZM22.2963 12.0027C25.223 12.1239 27.0176 12.0801 29.8558 12.0109L29.9485 12.0087C30.893 11.9856 31.7848 12.448 32.3097 13.2349C33.2134 14.5895 32.7247 16.2928 31.5642 17.1372C30.9668 17.5719 30.3643 18.0926 29.927 18.6196C29.4591 19.1835 29.3472 19.553 29.3472 19.7146C29.3472 20.0788 29.2732 20.4827 29.055 20.8638C28.8313 21.2544 28.5083 21.5295 28.1599 21.7029C27.5469 22.0081 26.823 22.181 26.0726 21.9718C25.3297 21.7647 24.8424 21.261 24.5344 20.805C24.0039 20.0196 23.7011 18.8927 23.4729 18.0432C23.4615 18.0009 23.4503 17.9593 23.4393 17.9184C23.1661 16.9048 22.94 16.0962 22.6186 15.5231C22.3859 15.1081 22.2238 15.0164 22.09 14.9967C22.0386 14.9945 21.9869 14.9923 21.9348 14.99L22 13.4915L21.9984 11.9915C22.1002 11.9914 22.1994 11.9952 22.2963 12.0027ZM47.2932 44.6072V37.2526H50.2932V44.6072H47.2932ZM77.6652 45.5415C77.6649 45.5415 77.6647 45.5415 77.6647 44.0415C77.6647 42.5415 77.6649 42.5415 77.6652 42.5415H148.994V45.5415H77.6652ZM24.9264 47.236C19.4684 46.9068 13.1887 46.48 10.1119 46.0956L10.4838 43.1188C13.4455 43.4888 19.6201 43.9105 25.107 44.2414C27.839 44.4062 30.3831 44.5474 32.2443 44.6475C33.1748 44.6975 33.9345 44.7372 34.4613 44.7644C34.7248 44.778 34.93 44.7885 35.0693 44.7956L35.2807 44.8063C35.2808 44.8063 35.2815 44.8063 35.2066 46.3044C35.1318 47.8026 35.1317 47.8026 35.1315 47.8026L34.9172 47.7917C34.7771 47.7846 34.571 47.7741 34.3066 47.7605C33.7779 47.7331 33.0162 47.6933 32.0833 47.6432C30.2176 47.5429 27.6667 47.4012 24.9264 47.236ZM299.013 160.387H100.875V157.387H299.013V160.387ZM118.991 168.307H99.1768V165.307H118.991V168.307ZM299.013 168.873H280.331V165.873H299.013V168.873ZM113.896 179.056H95.2141V176.056H113.896V179.056ZM285.426 179.622V176.622H302.41V179.622H285.426ZM338.621 351.042L294.465 350.476L294.503 347.476L338.66 348.042L338.621 351.042ZM60.6815 351.042V348.042H103.14V351.042H60.6815ZM165.363 364.053L60.6329 360.658L60.7301 357.66L165.46 361.054L165.363 364.053ZM232.262 364.053C232.261 364.053 232.261 364.053 232.212 362.554C232.164 361.054 232.164 361.054 232.164 361.054L232.167 361.054L232.175 361.054L336.894 357.66L336.991 360.658L232.272 364.053L232.264 364.053L232.262 364.053ZM69.1282 367.447L69.2181 364.449L125.829 366.146L125.739 369.145L69.1282 367.447ZM273.017 369.145L272.927 366.146L329.538 364.449L329.628 367.447L273.017 369.145Z" fill="#444A4A"/>
<path d="M102.969 253.438C102.5 250.906 102.57 248.258 103.18 245.492C103.836 242.68 104.867 239.891 106.273 237.125C107.68 234.359 109.414 231.711 111.477 229.18C113.539 226.602 115.742 224.281 118.086 222.219C120.477 220.156 122.961 218.422 125.539 217.016C128.164 215.609 130.719 214.648 133.203 214.133C133.953 214.133 134.609 214.367 135.172 214.836C135.781 215.305 136.297 215.891 136.719 216.594C137.141 217.297 137.445 218.047 137.633 218.844C137.867 219.641 137.984 220.367 137.984 221.023V227.844C137.984 228.312 137.797 228.617 137.422 228.758C137.047 228.852 136.719 228.898 136.437 228.898C136.109 228.898 135.711 228.852 135.242 228.758C134.773 228.664 134.539 228.359 134.539 227.844C134.539 227.656 134.516 227.352 134.469 226.93C134.422 226.508 134.375 226.039 134.328 225.523C134.281 225.008 134.234 224.516 134.187 224.047C134.187 223.578 134.187 223.273 134.187 223.133C134.187 223.039 134.164 222.734 134.117 222.219C134.117 221.656 134.07 221.094 133.977 220.531C133.883 219.969 133.742 219.453 133.555 218.984C133.367 218.516 133.133 218.281 132.852 218.281H130.391C130.391 218.281 130.18 218.398 129.758 218.633C129.336 218.82 128.844 219.055 128.281 219.336C127.719 219.617 127.156 219.922 126.594 220.25C126.031 220.531 125.609 220.789 125.328 221.023C125.187 221.117 124.953 221.281 124.625 221.516C124.344 221.75 124.039 221.984 123.711 222.219C123.383 222.453 123.078 222.688 122.797 222.922C122.516 223.156 122.305 223.32 122.164 223.414C119.633 225.852 117.43 228.125 115.555 230.234C113.68 232.297 112.109 234.453 110.844 236.703C109.578 238.953 108.617 241.391 107.961 244.016C107.352 246.594 107.047 249.664 107.047 253.227C107.047 254.633 107.117 256.203 107.258 257.938C107.445 259.625 107.703 261.359 108.031 263.141C108.406 264.922 108.922 266.68 109.578 268.414C110.234 270.102 111.055 271.602 112.039 272.914C113.023 274.227 114.219 275.281 115.625 276.078C117.031 276.875 118.695 277.273 120.617 277.273H122.164C124.273 276.57 126.125 275.938 127.719 275.375C129.359 274.766 130.812 274.156 132.078 273.547C133.391 272.938 134.562 272.281 135.594 271.578C136.672 270.828 137.703 269.938 138.687 268.906C139.719 267.875 140.773 266.633 141.852 265.18C142.93 263.727 144.148 262.016 145.508 260.047C145.555 260.047 145.625 260.047 145.719 260.047C145.812 260 145.906 259.977 146 259.977C146.844 259.977 147.266 260.398 147.266 261.242C147.266 262.32 146.984 263.539 146.422 264.898C145.906 266.211 144.922 267.664 143.469 269.258C142.062 270.852 140.07 272.539 137.492 274.32C134.961 276.055 131.703 277.812 127.719 279.594C126.969 279.922 126.312 280.203 125.75 280.438C125.187 280.625 124.648 280.766 124.133 280.859C123.617 280.953 123.078 281 122.516 281C122 281.047 121.414 281.07 120.758 281.07C118.32 281.07 116.187 280.648 114.359 279.805C112.578 278.961 111.031 277.836 109.719 276.43C108.406 274.977 107.305 273.336 106.414 271.508C105.57 269.633 104.891 267.664 104.375 265.602C103.859 263.492 103.484 261.406 103.25 259.344C103.062 257.234 102.969 255.266 102.969 253.438Z" fill="#444A4A"/>
<path d="M145.437 275.516C145.437 275.469 145.461 275.305 145.508 275.023C145.555 274.742 145.602 274.461 145.648 274.18C145.695 273.852 145.742 273.57 145.789 273.336C145.836 273.055 145.859 272.867 145.859 272.773V272.492V272.07L146.844 267.641C147.641 265.953 148.461 264.336 149.305 262.789C150.195 261.242 151.203 259.883 152.328 258.711C153.453 257.539 154.742 256.602 156.195 255.898C157.695 255.195 159.5 254.844 161.609 254.844C162.031 254.844 162.547 254.984 163.156 255.266C163.812 255.5 164.445 255.805 165.055 256.18C165.711 256.555 166.297 256.953 166.812 257.375C167.375 257.75 167.797 258.102 168.078 258.43C169.531 258.195 170.586 258.078 171.242 258.078C171.898 258.031 172.461 258.008 172.93 258.008C173.398 257.961 173.891 257.867 174.406 257.727C174.969 257.586 175.812 257.281 176.937 256.812C177.734 256.578 178.508 256.461 179.258 256.461C179.586 256.461 179.891 256.602 180.172 256.883C180.5 257.164 180.664 257.492 180.664 257.867C180.664 258.336 180.5 258.758 180.172 259.133C179.844 259.508 179.445 259.742 178.977 259.836L170.187 261.805L169.414 262.156C169.367 264.688 168.805 267.102 167.727 269.398C166.648 271.695 165.219 273.711 163.437 275.445C161.656 277.18 159.594 278.562 157.25 279.594C154.906 280.578 152.469 281.07 149.937 281.07C149.75 281.07 149.445 281.047 149.023 281C148.602 281 148.32 281 148.18 281C147.148 280.578 146.422 279.805 146 278.68C145.625 277.555 145.437 276.5 145.437 275.516ZM149.937 276.922C149.984 277.156 150.172 277.273 150.5 277.273C150.828 277.273 151.062 277.273 151.203 277.273C152.891 277.273 154.625 276.852 156.406 276.008C158.187 275.117 159.781 273.992 161.187 272.633C162.641 271.227 163.812 269.656 164.703 267.922C165.641 266.141 166.109 264.359 166.109 262.578C164.609 262.578 163.109 262.461 161.609 262.227C160.109 261.945 158.656 261.805 157.25 261.805H157.18L151.344 267.992C151.016 268.32 150.758 268.766 150.57 269.328C150.383 269.891 150.242 270.5 150.148 271.156C150.055 271.812 149.984 272.469 149.937 273.125C149.891 273.781 149.867 274.367 149.867 274.883C149.867 275.023 149.867 275.352 149.867 275.867C149.867 276.383 149.891 276.734 149.937 276.922Z" fill="#444A4A"/>
<path d="M177.43 303.641C177.43 303.5 177.43 303.266 177.43 302.938C177.43 302.656 177.43 302.352 177.43 302.023C177.43 301.742 177.43 301.484 177.43 301.25C177.43 301.062 177.43 300.945 177.43 300.898L179.891 278.891C180.219 277.156 180.5 275.797 180.734 274.812C180.969 273.781 181.156 273.008 181.297 272.492C181.484 271.93 181.672 271.555 181.859 271.367L186.992 254.914C187.18 254.352 187.531 253.555 188.047 252.523C188.562 251.445 189.148 250.391 189.805 249.359C190.508 248.328 191.258 247.461 192.055 246.758C192.852 246.008 193.648 245.633 194.445 245.633C194.773 245.633 195.055 245.75 195.289 245.984C195.523 246.219 195.711 246.5 195.852 246.828C196.039 247.156 196.156 247.508 196.203 247.883C196.297 248.258 196.344 248.562 196.344 248.797C196.344 250.953 196.039 253.156 195.43 255.406C194.867 257.656 194.117 259.883 193.18 262.086C192.242 264.242 191.117 266.305 189.805 268.273C188.492 270.242 187.109 271.977 185.656 273.477L184.602 277.273C189.898 277.18 195.031 276.312 200 274.672C205.016 273.031 209.82 271.016 214.414 268.625H214.766C215.187 268.625 215.469 268.789 215.609 269.117C215.797 269.398 215.891 269.703 215.891 270.031C215.891 270.406 215.82 270.734 215.68 271.016C215.539 271.297 215.234 271.555 214.766 271.789C211.062 274.086 207.102 275.961 202.883 277.414C198.664 278.867 194.398 279.969 190.086 280.719C190.93 281.656 191.633 282.43 192.195 283.039C192.758 283.648 193.203 284.258 193.531 284.867C193.906 285.523 194.164 286.273 194.305 287.117C194.492 287.961 194.586 289.109 194.586 290.562C194.586 294.219 193.719 297.406 191.984 300.125C190.297 302.891 188.07 305.445 185.305 307.789C184.648 308.305 183.828 308.844 182.844 309.406C181.906 309.969 180.992 310.25 180.102 310.25C179.305 310.25 178.719 309.992 178.344 309.477C177.969 308.961 177.711 308.352 177.57 307.648C177.43 306.992 177.383 306.289 177.43 305.539C177.43 304.789 177.43 304.156 177.43 303.641ZM183.195 283.742C183.008 285.195 182.797 286.836 182.562 288.664C182.328 290.492 182.117 292.367 181.93 294.289C181.742 296.211 181.578 298.133 181.437 300.055C181.297 301.977 181.227 303.781 181.227 305.469C182.492 305.469 183.711 304.906 184.883 303.781C186.102 302.703 187.18 301.367 188.117 299.773C189.055 298.227 189.828 296.633 190.437 294.992C191.047 293.352 191.375 291.992 191.422 290.914C191.516 289.602 191.422 288.477 191.141 287.539C190.906 286.648 190.508 285.875 189.945 285.219C189.383 284.609 188.656 284.094 187.766 283.672C186.875 283.25 185.82 282.828 184.602 282.406H184.25C183.922 282.406 183.687 282.547 183.547 282.828C183.406 283.109 183.289 283.414 183.195 283.742ZM191.844 253.578C191.797 253.578 191.703 253.766 191.562 254.141C191.422 254.469 191.234 254.844 191 255.266C190.812 255.688 190.625 256.133 190.437 256.602C190.297 257.07 190.18 257.422 190.086 257.656C189.945 258.031 189.781 258.523 189.594 259.133C189.406 259.695 189.219 260.281 189.031 260.891C188.891 261.453 188.75 261.969 188.609 262.438C188.469 262.859 188.398 263.094 188.398 263.141V263.562C189.289 261.969 190.109 260.305 190.859 258.57C191.609 256.789 192.031 255.008 192.125 253.227L191.844 253.578Z" fill="#444A4A"/>
<path d="M212.516 303.641C212.516 303.5 212.516 303.266 212.516 302.938C212.516 302.656 212.516 302.352 212.516 302.023C212.516 301.742 212.516 301.484 212.516 301.25C212.516 301.062 212.516 300.945 212.516 300.898L214.977 278.891C215.305 277.156 215.586 275.797 215.82 274.812C216.055 273.781 216.242 273.008 216.383 272.492C216.57 271.93 216.758 271.555 216.945 271.367L222.078 254.914C222.266 254.352 222.617 253.555 223.133 252.523C223.648 251.445 224.234 250.391 224.891 249.359C225.594 248.328 226.344 247.461 227.141 246.758C227.937 246.008 228.734 245.633 229.531 245.633C229.859 245.633 230.141 245.75 230.375 245.984C230.609 246.219 230.797 246.5 230.937 246.828C231.125 247.156 231.242 247.508 231.289 247.883C231.383 248.258 231.43 248.562 231.43 248.797C231.43 250.953 231.125 253.156 230.516 255.406C229.953 257.656 229.203 259.883 228.266 262.086C227.328 264.242 226.203 266.305 224.891 268.273C223.578 270.242 222.195 271.977 220.742 273.477L219.687 277.273C224.984 277.18 230.117 276.312 235.086 274.672C240.102 273.031 244.906 271.016 249.5 268.625H249.852C250.273 268.625 250.555 268.789 250.695 269.117C250.883 269.398 250.977 269.703 250.977 270.031C250.977 270.406 250.906 270.734 250.766 271.016C250.625 271.297 250.32 271.555 249.852 271.789C246.148 274.086 242.187 275.961 237.969 277.414C233.75 278.867 229.484 279.969 225.172 280.719C226.016 281.656 226.719 282.43 227.281 283.039C227.844 283.648 228.289 284.258 228.617 284.867C228.992 285.523 229.25 286.273 229.391 287.117C229.578 287.961 229.672 289.109 229.672 290.562C229.672 294.219 228.805 297.406 227.07 300.125C225.383 302.891 223.156 305.445 220.391 307.789C219.734 308.305 218.914 308.844 217.93 309.406C216.992 309.969 216.078 310.25 215.187 310.25C214.391 310.25 213.805 309.992 213.43 309.477C213.055 308.961 212.797 308.352 212.656 307.648C212.516 306.992 212.469 306.289 212.516 305.539C212.516 304.789 212.516 304.156 212.516 303.641ZM218.281 283.742C218.094 285.195 217.883 286.836 217.648 288.664C217.414 290.492 217.203 292.367 217.016 294.289C216.828 296.211 216.664 298.133 216.523 300.055C216.383 301.977 216.312 303.781 216.312 305.469C217.578 305.469 218.797 304.906 219.969 303.781C221.187 302.703 222.266 301.367 223.203 299.773C224.141 298.227 224.914 296.633 225.523 294.992C226.133 293.352 226.461 291.992 226.508 290.914C226.602 289.602 226.508 288.477 226.227 287.539C225.992 286.648 225.594 285.875 225.031 285.219C224.469 284.609 223.742 284.094 222.852 283.672C221.961 283.25 220.906 282.828 219.687 282.406H219.336C219.008 282.406 218.773 282.547 218.633 282.828C218.492 283.109 218.375 283.414 218.281 283.742ZM226.93 253.578C226.883 253.578 226.789 253.766 226.648 254.141C226.508 254.469 226.32 254.844 226.086 255.266C225.898 255.688 225.711 256.133 225.523 256.602C225.383 257.07 225.266 257.422 225.172 257.656C225.031 258.031 224.867 258.523 224.68 259.133C224.492 259.695 224.305 260.281 224.117 260.891C223.977 261.453 223.836 261.969 223.695 262.438C223.555 262.859 223.484 263.094 223.484 263.141V263.562C224.375 261.969 225.195 260.305 225.945 258.57C226.695 256.789 227.117 255.008 227.211 253.227L226.93 253.578Z" fill="#444A4A"/>
<path d="M249.641 270.031C249.734 269.75 249.875 269.258 250.062 268.555C250.297 267.805 250.508 267.008 250.695 266.164C250.93 265.32 251.117 264.523 251.258 263.773C251.445 262.977 251.586 262.438 251.68 262.156C251.961 261.031 252.289 259.812 252.664 258.5C253.086 257.188 253.648 255.969 254.352 254.844C255.055 253.719 255.945 252.805 257.023 252.102C258.148 251.352 259.531 250.977 261.172 250.977C261.781 250.977 262.203 251.211 262.437 251.68C262.719 252.102 262.953 252.57 263.141 253.086C263.141 253.273 263.141 253.625 263.141 254.141C263.187 254.609 263.211 254.938 263.211 255.125C263.211 257.141 263 258.922 262.578 260.469C262.203 262.016 261.594 263.445 260.75 264.758C259.953 266.07 258.969 267.312 257.797 268.484C256.625 269.609 255.289 270.805 253.789 272.07C253.742 272.211 253.672 272.445 253.578 272.773C253.484 273.102 253.437 273.336 253.437 273.477V273.617C253.437 274.461 253.578 275.141 253.859 275.656C254.141 276.172 254.516 276.594 254.984 276.922C255.5 277.203 256.062 277.391 256.672 277.484C257.328 277.531 258.031 277.555 258.781 277.555C260.984 277.555 263.094 277.25 265.109 276.641C267.125 276.031 268.977 275.047 270.664 273.688C270.898 273.453 271.18 273.125 271.508 272.703C271.883 272.234 272.258 271.766 272.633 271.297C273.008 270.828 273.406 270.43 273.828 270.102C274.25 269.727 274.695 269.539 275.164 269.539C275.633 269.539 275.914 269.727 276.008 270.102C276.102 270.477 276.148 270.852 276.148 271.227C276.148 272.258 275.82 273.242 275.164 274.18C274.555 275.07 273.734 275.891 272.703 276.641C271.719 277.344 270.57 277.977 269.258 278.539C267.992 279.102 266.727 279.57 265.461 279.945C264.195 280.32 262.977 280.602 261.805 280.789C260.68 280.977 259.719 281.07 258.922 281.07C256.437 281.07 254.352 280.672 252.664 279.875C251.023 279.031 249.898 277.367 249.289 274.883L249.641 270.031ZM259.695 256.18C258.758 257.023 258.008 257.797 257.445 258.5C256.93 259.156 256.508 259.859 256.18 260.609C255.898 261.312 255.641 262.086 255.406 262.93C255.219 263.773 255.008 264.758 254.773 265.883C255.664 265.18 256.391 264.477 256.953 263.773C257.562 263.07 258.055 262.344 258.43 261.594C258.805 260.844 259.086 260.047 259.273 259.203C259.461 258.312 259.602 257.305 259.695 256.18Z" fill="#444A4A"/>
<path d="M275.656 270.031C275.75 269.75 275.891 269.258 276.078 268.555C276.312 267.805 276.523 267.008 276.711 266.164C276.945 265.32 277.133 264.523 277.273 263.773C277.461 262.977 277.602 262.438 277.695 262.156C277.977 261.031 278.305 259.812 278.68 258.5C279.102 257.188 279.664 255.969 280.367 254.844C281.07 253.719 281.961 252.805 283.039 252.102C284.164 251.352 285.547 250.977 287.187 250.977C287.797 250.977 288.219 251.211 288.453 251.68C288.734 252.102 288.969 252.57 289.156 253.086C289.156 253.273 289.156 253.625 289.156 254.141C289.203 254.609 289.227 254.938 289.227 255.125C289.227 257.141 289.016 258.922 288.594 260.469C288.219 262.016 287.609 263.445 286.766 264.758C285.969 266.07 284.984 267.312 283.812 268.484C282.641 269.609 281.305 270.805 279.805 272.07C279.758 272.211 279.687 272.445 279.594 272.773C279.5 273.102 279.453 273.336 279.453 273.477V273.617C279.453 274.461 279.594 275.141 279.875 275.656C280.156 276.172 280.531 276.594 281 276.922C281.516 277.203 282.078 277.391 282.687 277.484C283.344 277.531 284.047 277.555 284.797 277.555C287 277.555 289.109 277.25 291.125 276.641C293.141 276.031 294.992 275.047 296.68 273.688C296.914 273.453 297.195 273.125 297.523 272.703C297.898 272.234 298.273 271.766 298.648 271.297C299.023 270.828 299.422 270.43 299.844 270.102C300.266 269.727 300.711 269.539 301.18 269.539C301.648 269.539 301.93 269.727 302.023 270.102C302.117 270.477 302.164 270.852 302.164 271.227C302.164 272.258 301.836 273.242 301.18 274.18C300.57 275.07 299.75 275.891 298.719 276.641C297.734 277.344 296.586 277.977 295.273 278.539C294.008 279.102 292.742 279.57 291.477 279.945C290.211 280.32 288.992 280.602 287.82 280.789C286.695 280.977 285.734 281.07 284.937 281.07C282.453 281.07 280.367 280.672 278.68 279.875C277.039 279.031 275.914 277.367 275.305 274.883L275.656 270.031ZM285.711 256.18C284.773 257.023 284.023 257.797 283.461 258.5C282.945 259.156 282.523 259.859 282.195 260.609C281.914 261.312 281.656 262.086 281.422 262.93C281.234 263.773 281.023 264.758 280.789 265.883C281.68 265.18 282.406 264.477 282.969 263.773C283.578 263.07 284.07 262.344 284.445 261.594C284.82 260.844 285.102 260.047 285.289 259.203C285.477 258.312 285.617 257.305 285.711 256.18Z" fill="#444A4A"/>
</svg>
