<svg width="240" height="324" viewBox="0 0 240 324" fill="none" xmlns="http://www.w3.org/2000/svg">
<path fill-rule="evenodd" clip-rule="evenodd" d="M25.172 13.4963L22.142 13.3388C21.9268 13.5302 21.622 13.8656 21.245 14.4258C20.6728 15.276 20.0719 16.4341 19.4609 17.8409C18.2415 20.6487 17.0833 24.2091 16.0748 27.7192C15.0699 31.2165 14.2304 34.6035 13.6392 37.0459C13.5374 37.4665 13.4422 37.8623 13.3545 38.2269C13.3324 38.3191 13.3107 38.4093 13.2895 38.4973C14.2475 38.6108 15.252 38.7055 16.1308 38.7458C16.4853 38.7621 16.7946 38.7681 17.0564 38.7658C17.071 38.6978 17.0863 38.629 17.1021 38.5596C17.257 37.8795 17.4957 36.9938 17.7909 35.9728C18.3834 33.9226 19.2361 31.2142 20.1928 28.2754C21.7802 23.3989 23.6696 17.84 25.172 13.4963ZM17.943 38.6971C17.9435 38.6974 17.9364 38.6996 17.9207 38.7031C17.9348 38.6987 17.9426 38.6969 17.943 38.6971ZM9.92122 42.0339C10.1204 42.126 10.3543 42.1916 10.6278 42.2114C10.7221 42.2182 10.8126 42.2183 10.8989 42.2129C12.3428 42.4284 14.3001 42.6661 15.9476 42.7416C16.8314 42.7821 17.7664 42.784 18.5064 42.6622C18.7785 42.6174 19.2132 42.529 19.6395 42.3043C21.2595 42.5488 22.8759 42.7865 24.4884 43.0175C28.594 43.6056 32.6746 44.1502 36.7265 44.6535C53.4627 46.7322 69.7112 48.1063 85.2193 48.9307C108.646 50.1762 130.386 50.1678 149.57 49.4391C150.482 49.4044 151.389 49.3681 152.289 49.3303C170.084 48.5824 185.591 47.2209 198.09 45.6868C201.15 45.3113 204.03 44.9253 206.719 44.5354C209.684 44.1056 212.418 43.6709 214.908 43.2398C217.033 42.8719 218.981 42.5063 220.743 42.1484C220.751 42.1472 220.76 42.146 220.769 42.1447L228.686 41.2669H230.221C230.816 41.2669 231.375 41.239 231.837 41.216C231.959 41.2099 232.075 41.2041 232.183 41.1993C232.739 41.1745 233.088 41.1746 233.363 41.2112C233.603 41.243 233.742 41.2978 233.86 41.3728C233.989 41.455 234.198 41.6292 234.478 42.0378C235.577 43.6413 235.409 45.8926 233.921 48.2609C232.444 50.6128 229.963 52.5201 227.568 53.1098C226.449 53.3853 225.282 53.661 224.067 53.936C222.505 54.2895 220.863 54.6416 219.145 54.9904C219.143 54.9907 219.141 54.9911 219.14 54.9914L216.449 55.522C216.448 55.5223 216.446 55.5226 216.444 55.5229C214.86 55.8267 213.216 56.1269 211.513 56.4221C210.487 56.6001 209.439 56.7763 208.37 56.9504C206.21 57.3022 203.963 57.6454 201.632 57.9774C166.51 62.9783 112.184 65.4338 43.6912 56.6736C37.3064 55.857 30.7987 54.9429 24.172 53.9244C22.8247 53.7173 21.4724 53.5059 20.1152 53.2901C18.7677 53.0759 17.4154 52.8573 16.0584 52.6343C14.5769 52.391 13.0898 52.1424 11.597 51.8885C9.41529 51.5175 7.35451 50.3862 5.95104 48.8381C4.56172 47.3057 3.88785 45.4612 4.18815 43.555C4.33217 42.6409 4.78858 42.19 5.57205 41.9218C6.49645 41.6053 7.85263 41.5916 9.37987 41.9181L9.92122 42.0339ZM214.87 59.8872C214.533 59.9488 214.194 60.0103 213.852 60.0716C213.843 62.1994 213.818 64.6737 213.764 66.5409C213.731 67.6908 213.685 68.7363 213.608 69.2963L213.607 69.3037C213.593 69.4068 213.552 69.7014 213.438 69.9896C213.403 70.0773 213.33 70.2466 213.198 70.4326C213.087 70.5886 212.775 70.9866 212.189 71.183C211.466 71.4256 210.802 71.2131 210.383 70.9152C210.04 70.6722 209.862 70.3849 209.796 70.2699C209.652 70.0212 209.588 69.7896 209.568 69.7142C209.537 69.6022 209.516 69.4946 209.5 69.4065C209.468 69.2286 209.44 69.0214 209.416 68.7995C209.156 66.4725 208.17 63.2995 207.4 61.157C206.254 61.3378 205.085 61.5161 203.894 61.6915C203.861 63.2084 203.783 64.9453 203.632 66.4076C203.529 67.4015 203.378 68.438 203.123 69.1953C203.054 69.3975 202.963 69.6304 202.836 69.8601C202.718 70.0722 202.506 70.4003 202.15 70.6757C201.746 70.9873 201.146 71.2303 200.441 71.1195C199.809 71.02 199.379 70.6782 199.145 70.4448C198.465 69.7657 198.14 68.7751 197.956 68.0882C197.744 67.2929 197.595 66.3769 197.487 65.4779C197.373 64.5208 197.3 63.5219 197.256 62.6072C161.994 67.1551 109.697 69.019 44.6616 60.8288L43.3955 63.6802C42.078 66.6472 37.8517 65.9677 37.2936 63.0362C35.6443 62.9863 33.3702 62.5849 31.5954 61.1251C31.5923 61.1347 31.5893 61.1442 31.5863 61.1538C31.6327 61.2575 31.682 61.3873 31.7178 61.5329C31.7465 61.6498 31.8736 62.1678 31.6364 62.7687C31.4956 63.1254 31.2376 63.4772 30.8477 63.7263C30.4785 63.9623 30.1122 64.0291 29.8573 64.0413C29.6212 64.0526 29.4159 64.0205 29.2599 63.9815C28.9541 64.0635 28.6565 64.0982 28.3968 64.0961C27.6317 64.0901 26.4822 63.7429 25.8682 62.7532V83.4593L21.8955 83.7887C21.5472 81.703 21.1864 79.2621 20.8752 76.7191L18.0318 57.0077C18.0114 57.0044 17.991 57.0012 17.9707 56.9979C18.8449 66.2801 19.944 78.9636 20.6669 89.6978C21.0629 95.5762 21.348 100.899 21.4195 104.766C21.4551 106.688 21.4392 108.308 21.3485 109.471C21.3407 109.571 21.3322 109.671 21.3226 109.77C23.1695 110.485 25.031 111.172 26.9058 111.833C27.0645 109.68 27.2605 107.256 27.4584 105.247C27.599 103.819 27.7462 102.541 27.8889 101.719C27.9251 101.51 27.9657 101.303 28.012 101.116C28.0454 100.981 28.1231 100.675 28.2815 100.381L28.2848 100.375C28.3388 100.275 28.5935 99.8009 29.1621 99.506C29.5244 99.3181 30.0103 99.208 30.5406 99.3269C31.0353 99.4379 31.3685 99.7036 31.5546 99.8945C31.8814 100.23 32.0104 100.596 32.0457 100.696C32.1011 100.853 32.1347 100.999 32.1557 101.104C32.3645 102.146 32.6196 104.804 32.8496 107.529C33.0362 109.741 33.2153 112.117 33.3483 113.984C34.1453 114.235 34.9443 114.482 35.7453 114.725C36.2791 114.887 36.8139 115.046 37.3494 115.204C37.7201 113.384 38.1419 111.445 38.4908 110.119C38.6137 109.653 38.7398 109.214 38.8626 108.869C38.9209 108.706 39.0018 108.496 39.1072 108.296C39.1577 108.2 39.2498 108.037 39.3907 107.867C39.4833 107.755 39.8484 107.322 40.5101 107.162C40.8975 107.069 41.3332 107.085 41.7514 107.255C42.1449 107.414 42.4067 107.662 42.5638 107.854C42.8456 108.197 42.9466 108.548 42.9799 108.67C43.0603 108.965 43.0781 109.259 43.0854 109.438C43.0983 109.758 43.0889 110.168 43.0625 110.658C43.2173 110.603 43.3842 110.542 43.5666 110.475L43.6174 110.457C43.6372 110.449 43.6572 110.442 43.6774 110.434C43.9835 110.224 44.3286 110.111 44.6791 110.086C44.7586 110.061 44.8381 110.036 44.9171 110.014C45.3607 109.886 45.9759 109.741 46.6144 109.775C47.3173 109.813 48.2449 110.092 48.8552 111.001C49.386 111.792 49.4222 112.702 49.3583 113.403C49.1882 115.27 49.2275 116.694 49.3329 117.689C49.3618 117.963 49.3954 118.201 49.4302 118.405C50.0947 118.562 50.76 118.717 51.4262 118.868C56.0266 119.917 60.6668 120.837 65.3288 121.637C69.0581 122.278 72.8011 122.842 76.5485 123.335C81.4878 123.985 86.4345 124.511 91.3676 124.926C95.2738 125.254 99.1712 125.513 103.049 125.707C108.491 125.979 113.895 126.125 119.231 126.161C125.33 126.203 131.34 126.1 137.218 125.879C141.025 125.735 144.777 125.541 148.462 125.304C153.391 124.987 158.198 124.593 162.856 124.136C167.191 123.712 171.397 123.234 175.45 122.715C180.166 122.112 184.675 121.454 188.94 120.762C189.138 120.73 189.335 120.697 189.532 120.665C189.56 118.813 189.637 116.616 189.799 114.813C189.901 113.678 190.049 112.534 190.292 111.73C190.357 111.518 190.445 111.27 190.569 111.028C190.678 110.816 190.903 110.43 191.32 110.123C191.836 109.743 192.577 109.548 193.34 109.814C193.948 110.026 194.308 110.446 194.474 110.667C194.79 111.087 195.031 111.606 195.218 112.128C195.228 112.035 195.239 111.942 195.249 111.851C195.41 110.399 195.597 109.054 195.812 108.186C195.868 107.963 195.938 107.717 196.03 107.485L196.031 107.482C196.09 107.335 196.28 106.856 196.717 106.478C196.981 106.25 197.469 105.945 198.143 105.962C198.819 105.978 199.293 106.308 199.548 106.553C199.972 106.96 200.14 107.462 200.195 107.627C200.836 109.546 201.908 114.742 202.596 118.276C203.098 118.174 203.594 118.072 204.085 117.969C204.323 114.532 204.687 110.093 205.112 106.447C205.356 104.358 205.629 102.455 205.923 101.143C206.058 100.54 206.241 99.8471 206.522 99.3262C206.601 99.1798 206.72 98.9842 206.893 98.7907C207.058 98.6065 207.363 98.3205 207.832 98.1576C208.367 97.972 208.941 98.0086 209.439 98.2419C209.875 98.4462 210.145 98.7489 210.291 98.9426C210.69 99.4736 210.891 100.166 211.01 100.632C211.151 101.189 211.272 101.853 211.377 102.569C211.589 104.006 211.76 105.806 211.899 107.698C212.104 110.498 212.241 113.573 212.322 116.119C213.259 115.892 214.165 115.666 215.04 115.442L216.451 114.386C216.599 114.275 216.759 114.182 216.927 114.108C216.804 113.753 216.767 113.345 216.847 112.892L217.554 108.896L222.262 58.4275C222.014 58.4804 221.764 58.5333 221.513 58.586C221.45 59.8336 221.225 60.9174 220.821 61.7655C220.428 62.5897 219.394 64.0068 217.623 63.6801C216.84 63.5357 216.277 63.0725 215.917 62.6305C215.556 62.1864 215.312 61.6652 215.147 61.1488C215.023 60.764 214.931 60.3421 214.87 59.8872ZM226.365 57.5118L221.691 107.614C224.867 108.707 226.682 111.385 227.623 114.322C228.715 117.732 228.77 121.814 228.505 125.254C226.954 145.389 221.383 190.218 217.581 219.291C217.527 219.698 217.475 220.125 217.421 220.566C217.15 222.788 216.835 225.362 216.113 227.597C215.344 229.978 214.005 232.321 211.496 233.632L207.406 286.318C206.864 293.306 203.216 299.844 197.055 303.478C196.018 304.089 194.98 304.685 193.942 305.265C192.843 305.879 191.744 306.475 190.645 307.055C189.882 307.457 189.118 307.851 188.355 308.237C185.456 309.701 182.553 311.05 179.652 312.287C178.583 312.743 177.513 313.184 176.445 313.611C133.513 330.732 91.2057 324.01 61.5638 312.66C60.6369 312.305 59.7223 311.945 58.8202 311.582C56.1115 310.49 53.5159 309.363 51.0431 308.214C49.9507 307.707 48.8823 307.196 47.8385 306.682C45.9205 305.737 44.0858 304.783 42.3398 303.828C41.5572 303.4 40.7924 302.971 40.0457 302.544L38.9767 301.931L38.9796 301.877C34.3248 298.716 31.6826 293.427 31.4408 287.879L29.143 235.14C25.903 232.705 23.4708 229.157 23.0039 224.897L11.0228 115.586V115.476C11.0228 114.084 11.3408 112.869 11.96 111.858C12.5786 110.848 13.4287 110.157 14.3176 109.703C15.3246 109.19 16.4056 108.968 17.3782 108.911C17.4387 107.951 17.4524 106.576 17.4202 104.84C17.3506 101.074 17.0709 95.8296 16.676 89.9666C15.9288 78.8724 14.7764 65.6674 13.8897 56.3302C12.9044 56.1664 11.9166 56.0003 10.9264 55.8319C7.88517 55.3147 5.00912 53.7545 2.98761 51.5248C0.95196 49.2794 -0.287293 46.2597 0.236882 42.9325C0.638422 40.3837 2.26072 38.8274 4.27661 38.1373C5.86637 37.5932 7.66379 37.5855 9.33254 37.8436C9.37225 37.6788 9.41424 37.5043 9.45851 37.3202C9.54702 36.9523 9.64466 36.5463 9.7515 36.1049C10.3465 33.6466 11.2017 30.1944 12.2303 26.6146C13.2552 23.0475 14.4695 19.2926 15.792 16.2475C16.452 14.7278 17.1643 13.325 17.9266 12.1924C18.6179 11.1653 19.4997 10.1306 20.6164 9.56659C22.2788 8.47908 25.0517 7.29497 28.9513 6.14223C32.9927 4.94756 38.3696 3.75066 45.2323 2.7349C58.9507 0.704406 78.6781 -0.612712 105.678 0.288973C123.657 -0.00649324 147.556 -0.0690581 168.136 0.514234C178.432 0.80606 187.925 1.26024 195.439 1.93122C199.194 2.26656 202.484 2.65846 205.147 3.11715C207.751 3.56575 209.946 4.10785 211.384 4.81752C211.473 4.86136 211.566 4.90923 211.662 4.96152L221.1 9.86637L221.38 10.5309C223.197 14.8377 225.835 21.4181 227.842 27.1647C228.843 30.0307 229.704 32.7375 230.224 34.868C230.435 35.7302 230.601 36.5439 230.693 37.2605C230.996 37.2525 231.286 37.2382 231.583 37.2234C231.721 37.2166 231.861 37.2097 232.005 37.2033C232.572 37.1779 233.232 37.1587 233.89 37.246C234.584 37.3382 235.303 37.5505 236.006 37.9976C236.698 38.4375 237.273 39.0406 237.777 39.7766C240.14 43.2243 239.24 47.3134 237.308 50.3885C235.366 53.4802 232.076 56.1195 228.525 56.9938C227.823 57.1666 227.103 57.3394 226.365 57.5118ZM226.681 37.4646C226.61 37.0164 226.497 36.4664 226.338 35.8165C225.864 33.8744 225.053 31.3108 224.066 28.4836C222.276 23.3595 219.963 17.5279 218.207 13.3084H215.348C216.934 17.9102 218.867 23.7545 220.354 28.7786C221.247 31.7971 221.995 34.5732 222.406 36.6189C222.495 37.0668 222.574 37.5024 222.634 37.9134L226.681 37.4646ZM218.674 38.4817C218.63 38.1821 218.568 37.8241 218.484 37.4054C218.11 35.5429 217.404 32.9077 216.518 29.9137C214.909 24.4778 212.761 18.0359 211.114 13.3084H205.608L199.286 13.809C199.238 13.8841 199.186 13.9671 199.129 14.0582C198.879 14.4573 198.609 14.9062 198.315 15.3958C198.077 15.7908 197.824 16.2123 197.552 16.6555C196.987 17.5784 196.356 18.5736 195.812 19.2605C195.583 19.5501 195.19 20.0238 194.695 20.3246C194.472 20.4604 193.813 20.8209 192.967 20.6088C192.272 20.4343 191.863 19.9914 191.634 19.6017L187.883 14.7121L177.19 15.559L177.163 15.5604C162.683 16.313 139.699 17.216 117.795 17.4795C96.0583 17.7409 75.1507 17.3783 64.7634 15.554L48.7337 14.7209L43.8546 27.9581L40.3696 14.2862L29.3305 13.7124C27.7822 18.1717 25.7102 24.2484 23.9963 29.5135C23.0437 32.4399 22.2074 35.0981 21.6336 37.0835C21.4805 37.6129 21.3485 38.0866 21.2389 38.4996C21.9528 38.6062 22.666 38.7115 23.3785 38.8155L28.2882 23.3303L32.1012 24.5393L27.393 39.3884C30.1577 39.7742 32.9107 40.1402 35.6509 40.4872L38.7138 32.2562L42.4626 33.6512L39.7313 40.9911C54.8124 42.806 69.4849 44.0486 83.5595 44.8344C83.6924 43.99 83.881 43.064 84.1365 42.1683C84.3762 41.3279 84.6922 40.4514 85.1125 39.6742C85.5174 38.9253 86.1162 38.0857 87.0094 37.5509C87.4219 37.304 87.999 37.0813 88.6824 37.1433C89.3949 37.2079 89.9423 37.5559 90.311 37.9392C90.9409 38.5943 91.1854 39.4852 91.3071 40.0607C91.5803 41.3529 91.6059 43.0604 91.5564 44.522C91.5478 44.774 91.5136 45.0104 91.4571 45.2309C111.815 46.1393 130.8 46.1065 147.809 45.5011C148.058 44.2476 148.397 42.8256 148.805 41.5983C149.097 40.7245 149.478 39.7759 149.983 39.0615C150.231 38.7113 150.626 38.2442 151.215 37.9436C151.911 37.5881 152.759 37.5333 153.55 37.9282C154.285 38.2947 154.753 38.8961 155.047 39.3914C155.351 39.9046 155.569 40.4769 155.732 41.0203C156.058 42.1085 156.242 43.3592 156.345 44.4562C156.367 44.6895 156.37 44.9185 156.357 45.1422C171.427 44.4121 184.718 43.2474 195.756 41.9393C195.678 39.9369 195.667 37.8554 195.767 35.9827C195.834 34.7494 195.95 33.5681 196.139 32.5415C196.319 31.564 196.598 30.5286 197.094 29.7254C197.35 29.3109 197.742 28.8297 198.334 28.5063C198.982 28.1524 199.711 28.0758 200.409 28.2585C201.595 28.5687 202.478 29.5641 203.129 30.4808C204.413 32.2878 205.924 35.4659 207.748 40.3405C209.269 40.1127 210.723 39.8841 212.107 39.6561L208.558 25.3172L212.441 24.3562L216.059 38.9736C216.97 38.8083 217.842 38.6441 218.674 38.4817ZM122.188 13.418C122.987 13.4054 123.785 13.3921 124.584 13.378C123.994 13.3695 123.406 13.3613 122.818 13.3534C122.61 13.3749 122.4 13.3964 122.188 13.418ZM177.235 11.543L197.964 9.90125C198.067 9.885 198.179 9.87476 198.298 9.87482L205.152 9.33193C206.581 8.89086 207.681 8.4848 208.491 8.11735C208.556 8.08814 208.618 8.05954 208.677 8.03155C207.711 7.70915 206.316 7.37743 204.468 7.05909C201.954 6.62613 198.784 6.24579 195.083 5.91537C187.686 5.25485 178.286 4.80351 168.023 4.51263C147.503 3.93105 123.643 3.99367 105.694 4.28925L105.644 4.29007L105.594 4.2884C78.7533 3.38961 59.2572 4.70262 45.8179 6.69179C39.4867 7.62888 34.5155 8.71372 30.7633 9.78149L64.8686 11.5541C76.1325 9.59247 95.0907 7.26389 115.762 6.58129C136.422 5.89908 158.943 6.85487 177.235 11.543ZM32.1744 59.7696C32.1744 59.77 32.1697 59.7761 32.1603 59.7863C32.1697 59.7742 32.1744 59.7691 32.1744 59.7696ZM40.4809 60.2907C40.4903 60.3019 40.4996 60.3131 40.5089 60.3244L40.5215 60.2961C40.508 60.2943 40.4944 60.2925 40.4809 60.2907ZM15.5176 119.882C15.5875 119.899 15.6584 119.914 15.73 119.927L15.8887 119.956C17.3078 120.213 18.5385 119.61 19.2704 118.637C19.9105 119.304 20.7683 119.656 21.6368 119.682C21.2329 120.482 21.0509 121.396 21.1451 122.337C22.895 139.829 25.3289 165.758 27.1029 188.327C27.99 199.614 28.7109 210.046 29.0991 218.158C29.2933 222.216 29.4033 225.675 29.4105 228.362C29.412 228.925 29.4088 229.447 29.4014 229.926C28.0673 228.341 27.201 226.477 26.9801 224.462L15.5176 119.882ZM33.231 237.072L35.437 287.705C35.5902 291.22 36.9426 294.502 39.2488 296.897C39.608 290.286 40.0642 282.02 40.4555 275.207C40.6909 271.11 40.9031 267.533 41.0566 265.16C41.133 263.978 41.196 263.077 41.2407 262.557C41.2519 262.427 41.263 262.309 41.2738 262.211L41.2747 262.202C41.2805 262.148 41.3002 261.966 41.3435 261.794C41.3469 261.781 41.4006 261.544 41.5468 261.287L41.5503 261.28C41.597 261.197 41.8802 260.69 42.5212 260.424C42.8529 260.319 43.5696 260.291 43.932 260.377C44.2165 260.499 44.6492 260.805 44.803 260.964C45.0642 261.266 45.1648 261.57 45.1887 261.642L45.1897 261.645C45.2283 261.762 45.2481 261.857 45.2574 261.906C45.2766 262.007 45.2844 262.09 45.2875 262.125C45.2991 262.257 45.2995 262.401 45.2995 262.484V300.882C45.8489 301.176 46.4072 301.47 46.9741 301.764C47.2582 298.435 47.6147 294.583 47.9549 291.555C48.1757 289.588 48.3991 287.879 48.6025 286.898C48.653 286.654 48.7161 286.386 48.797 286.148C48.8347 286.037 48.9037 285.849 49.018 285.651C49.0754 285.552 49.178 285.39 49.3388 285.224C49.4903 285.066 49.8014 284.793 50.2879 284.662C51.6036 284.31 52.3722 285.285 52.535 285.536C52.73 285.837 52.8096 286.13 52.8388 286.243C52.9115 286.522 52.9489 286.834 52.9735 287.104C53.312 290.82 53.6716 299.996 53.8438 305.099C55.163 305.699 56.5172 306.293 57.9049 306.878C58.1616 304.825 58.4559 302.519 58.7151 300.587C58.9035 299.183 59.0759 297.956 59.2027 297.164C59.2607 296.802 59.3242 296.433 59.3869 296.192C59.399 296.146 59.4402 295.985 59.5186 295.81L59.521 295.804C59.5456 295.748 59.6781 295.447 59.9671 295.169C60.1264 295.016 60.5193 294.688 61.1382 294.62C61.8555 294.54 62.4173 294.852 62.7422 295.162C63.0201 295.427 63.1508 295.705 63.2017 295.823C63.2625 295.964 63.295 296.084 63.3118 296.154C63.3453 296.293 63.3577 296.409 63.3628 296.463C63.374 296.581 63.3752 296.689 63.3752 296.755C63.3752 297.975 63.8615 304.987 64.1804 309.373C92.8718 320.111 133.072 326.199 173.849 310.334C174.141 307.714 174.522 304.366 174.848 301.656C175.036 300.087 175.208 298.717 175.333 297.825C175.393 297.401 175.451 297.018 175.502 296.778C175.514 296.722 175.538 296.611 175.577 296.49C175.592 296.445 175.64 296.295 175.734 296.122C175.777 296.044 175.889 295.847 176.093 295.647C176.274 295.469 176.819 295.009 177.663 295.079C178.524 295.15 178.991 295.712 179.148 295.94C179.317 296.185 179.39 296.41 179.417 296.497C179.476 296.69 179.492 296.852 179.497 296.9C179.511 297.028 179.511 297.145 179.511 297.206C179.511 297.792 179.719 300.009 180.009 302.727C180.178 304.318 180.368 306.017 180.541 307.532C182.206 306.785 183.872 305.999 185.537 305.174C185.758 301.997 186.055 297.859 186.306 294.579C186.447 292.739 186.576 291.154 186.669 290.162C186.713 289.699 186.757 289.277 186.798 289.037C186.8 289.024 186.833 288.809 186.919 288.585C186.942 288.524 187.011 288.349 187.146 288.154L187.15 288.15C187.217 288.052 187.708 287.341 188.699 287.294C189.86 287.24 190.417 288.11 190.508 288.261C190.656 288.506 190.715 288.725 190.732 288.791C190.799 289.046 190.804 289.286 190.804 289.293C190.808 289.374 190.809 289.46 190.809 289.54C190.809 290.832 191.039 294.859 191.286 298.776C191.926 289.585 192.752 278.546 193.46 270.923C193.668 268.685 193.866 266.729 194.048 265.196C194.223 263.716 194.397 262.496 194.572 261.821C194.611 261.668 194.689 261.385 194.832 261.111C194.885 261.01 195.079 260.641 195.491 260.349C195.729 260.18 196.105 259.992 196.594 259.973C197.101 259.954 197.525 260.125 197.826 260.333C198.322 260.676 198.519 261.138 198.567 261.249L198.568 261.251C198.645 261.432 198.688 261.597 198.712 261.703C198.763 261.923 198.794 262.159 198.816 262.373C198.903 263.223 198.943 264.749 198.943 266.993C198.943 280.729 198.594 291.363 198.293 297.491C201.27 294.501 203.077 290.409 203.418 286.008L207.341 235.473C207.009 235.618 206.678 235.762 206.346 235.905C206.338 235.908 206.331 235.911 206.324 235.915C203.442 237.154 200.545 238.311 197.639 239.391C192.79 241.191 187.913 242.774 183.027 244.156C179.226 245.231 175.42 246.185 171.617 247.027C167.809 247.869 164.005 248.598 160.213 249.223C155.477 250.003 150.76 250.62 146.079 251.089C143.177 251.38 140.289 251.615 137.419 251.797C131.25 252.188 125.162 252.335 119.198 252.277C114.608 252.233 110.091 252.067 105.665 251.797C101.754 251.558 97.9136 251.238 94.1571 250.849C89.1429 250.329 84.2776 249.685 79.5913 248.947C75.8971 248.364 72.3139 247.723 68.8565 247.036C64.3844 246.147 60.1222 245.182 56.1023 244.171C51.2648 242.955 46.7764 241.671 42.6932 240.372C39.2409 239.273 36.0754 238.163 33.231 237.072ZM208.854 230.657C208.857 230.642 208.86 230.627 208.863 230.611C209.35 228.214 209.841 224.875 210.333 220.849C211.317 212.783 212.321 201.788 213.276 189.667C215.156 165.807 216.858 137.489 217.87 118.32L218.565 117.8L218.739 117.765C219.351 119.078 220.797 119.97 222.431 119.644L222.868 119.557C223.482 119.434 224.027 119.161 224.473 118.784C224.695 120.755 224.675 122.893 224.517 124.947C222.976 144.955 217.42 189.67 213.615 218.772C213.552 219.254 213.493 219.731 213.434 220.204C213.16 222.426 212.9 224.532 212.307 226.367C211.612 228.517 210.603 229.828 208.964 230.373L209.596 232.27L208.854 230.657ZM221.648 115.721C221.652 115.72 221.656 115.72 221.66 115.719L221.648 115.721ZM213.782 119.881C212.831 120.114 211.849 120.347 210.839 120.581C210.185 120.733 209.518 120.884 208.84 121.036C208.082 121.205 207.309 121.374 206.522 121.543L199.141 234.538C200.853 233.869 202.56 233.172 204.262 232.446C204.28 232.4 204.299 232.348 204.32 232.288C204.503 231.762 204.714 230.945 204.943 229.816C205.398 227.575 205.875 224.361 206.362 220.364C207.336 212.385 208.334 201.458 209.288 189.353C211.108 166.264 212.761 138.974 213.782 119.881ZM204.147 232.707C204.129 232.737 204.13 232.728 204.154 232.695C204.151 232.7 204.149 232.704 204.147 232.707ZM195.032 236.087L202.458 122.385C202.107 122.455 201.752 122.525 201.396 122.595C200.649 122.742 199.891 122.889 199.123 123.034C198.375 123.176 197.617 123.317 196.85 123.457C196.25 123.567 195.644 123.676 195.033 123.785C193.768 124.009 192.479 124.231 191.167 124.449L184.639 239.522C188.114 238.484 191.58 237.341 195.032 236.087ZM180.566 240.69L187.123 125.101C184.072 125.576 180.906 126.033 177.639 126.464L173.281 242.545C175.711 241.975 178.14 241.357 180.566 240.69ZM169.244 243.449L173.617 126.976C170.812 127.319 167.939 127.642 165.004 127.941L161.95 244.869C164.379 244.441 166.811 243.968 169.244 243.449ZM157.932 245.538L160.993 128.332C157.583 128.648 154.099 128.931 150.549 129.174L147.929 246.872C151.25 246.506 154.586 246.063 157.932 245.538ZM143.919 247.279L146.542 129.431C144.152 129.572 141.734 129.696 139.293 129.799V247.66C140.831 247.549 142.373 247.422 143.919 247.279ZM135.293 247.916V129.949C130.673 130.1 125.974 130.178 121.217 130.17V248.289C125.846 248.298 130.544 248.179 135.293 247.916ZM117.217 248.25V130.143C113.178 130.095 109.101 129.984 104.999 129.803L107.743 247.91C110.86 248.078 114.02 248.194 117.217 248.25ZM103.737 247.663L100.993 129.604C98.4216 129.462 95.842 129.292 93.2571 129.091L96.3169 247.046C98.7571 247.283 101.231 247.489 103.737 247.663ZM92.3047 246.626L89.2471 128.757C85.6217 128.433 81.9887 128.048 78.3563 127.598L81.8525 245.249C85.2486 245.763 88.7365 246.226 92.3047 246.626ZM77.8317 244.609L74.3389 127.074C71.9152 126.741 69.493 126.379 67.0749 125.985L71.1895 243.416C73.3563 243.833 75.5716 244.232 77.8317 244.609ZM67.1587 242.608L63.0484 125.299C59.7202 124.708 56.402 124.056 53.1003 123.339L58.5191 240.65C61.2893 241.329 64.1727 241.985 67.1587 242.608ZM54.4673 239.62L49.0538 122.426C48.4847 122.292 47.9162 122.157 47.3483 122.02C44.3273 121.289 41.3233 120.502 38.3413 119.655C38.0114 119.561 37.6818 119.467 37.3524 119.372L45.204 236.968C48.0976 237.867 51.192 238.757 54.4673 239.62ZM41.1068 235.646L33.2618 118.148C32.4504 117.896 31.6409 117.64 30.8334 117.38C29.9464 117.093 29.0617 116.801 28.1796 116.504C28.5284 117.932 27.9817 119.501 26.6693 120.374L25.517 121.141C25.2284 121.333 25.0946 121.633 25.1252 121.939C26.8768 139.448 29.3136 165.407 31.0906 188.014C31.9789 199.316 32.7034 209.795 33.0945 217.967C33.29 222.051 33.4031 225.578 33.4105 228.351C33.4151 230.081 33.3802 231.598 33.2819 232.799C35.6359 233.732 38.2519 234.688 41.1068 235.646ZM31.9062 102.035C31.9064 102.035 31.9044 102.043 31.8998 102.057C31.9038 102.042 31.906 102.035 31.9062 102.035ZM39.085 109.542C39.0851 109.542 39.0856 109.546 39.0862 109.554C39.0851 109.545 39.0848 109.541 39.085 109.542ZM209.638 68.7949C209.638 68.7947 209.639 68.7875 209.641 68.7743C209.639 68.7886 209.638 68.795 209.638 68.7949ZM226.767 38.5019C226.764 38.5152 226.764 38.5223 226.764 38.5221C226.764 38.522 226.765 38.5169 226.767 38.506C226.767 38.5047 226.767 38.5033 226.767 38.5019Z" fill="#444A4A"/>
</svg>
